<?xml version="1.0" standalone="no"?>
<!DOCTYPE svg PUBLIC "-//W3C//DTD SVG 20010904//EN"
 "http://www.w3.org/TR/2001/REC-SVG-20010904/DTD/svg10.dtd">
<svg version="1.0" xmlns="http://www.w3.org/2000/svg"
 viewBox="0 0 436.504999 490.041200"
 preserveAspectRatio="xMidYMid meet">
<g transform="translate(-13.291025,497.489884) scale(0.100000,-0.100000)"
fill="#ffffff" stroke="none">
<path d="M2642 4963 c-24 -8 -72 -42 -110 -76 -37 -34 -91 -77 -119 -95 -55
-36 -165 -163 -189 -220 -20 -46 -10 -70 59 -148 33 -38 83 -97 109 -131 27
-34 78 -83 114 -108 45 -32 81 -71 120 -126 32 -45 81 -99 115 -125 58 -46 85
-83 149 -199 40 -75 68 -105 94 -105 36 0 35 -1 141 151 18 24 30 62 39 121
17 105 33 137 136 268 165 211 171 268 44 400 -29 30 -70 87 -92 125 -40 72
-106 129 -246 213 -92 56 -281 84 -364 55z"/>
<path d="M254 4651 c-170 -27 -160 -140 25 -283 63 -48 98 -82 113 -111 11
-23 33 -60 48 -83 16 -22 41 -67 57 -100 16 -32 41 -79 55 -104 15 -25 34 -73
43 -108 8 -34 35 -101 60 -148 29 -56 47 -107 54 -152 35 -230 35 -232 23
-291 -16 -78 -15 -128 4 -186 19 -54 14 -263 -7 -340 -6 -22 -12 -119 -14
-215 -2 -113 -8 -203 -19 -255 -21 -104 -20 -160 3 -253 11 -43 22 -108 26
-147 4 -38 17 -115 30 -170 13 -55 29 -137 35 -183 13 -100 13 -100 60 -182
21 -36 66 -114 100 -175 34 -60 84 -133 110 -161 34 -36 52 -66 64 -107 19
-65 41 -85 156 -142 56 -28 94 -57 150 -115 73 -75 78 -78 193 -120 91 -33
123 -50 138 -72 39 -54 52 -29 19 37 -11 22 -24 59 -30 81 -10 43 -45 80 -126
136 -40 27 -148 202 -173 278 -6 20 -40 80 -76 134 -74 114 -89 152 -110 296
-9 58 -25 146 -37 195 -12 50 -21 117 -21 150 1 33 3 157 5 275 4 192 7 221
27 275 12 33 29 85 38 115 8 30 23 87 34 125 10 39 19 91 19 118 0 28 10 73
25 110 15 34 32 94 40 134 7 39 26 95 41 125 21 40 29 74 35 143 4 50 15 124
24 165 25 110 24 238 -3 331 -12 41 -27 111 -32 154 -12 96 -81 227 -164 313
-28 29 -66 84 -86 124 -31 64 -43 77 -100 114 -36 23 -98 66 -139 96 -107 76
-138 90 -216 98 -44 4 -92 17 -128 35 -82 38 -271 62 -373 46z"/>
<path d="M4330 4640 c-30 -11 -68 -19 -85 -20 -149 -5 -357 -92 -461 -193 -41
-39 -80 -66 -120 -83 -64 -25 -85 -46 -141 -139 -20 -33 -62 -96 -93 -140 -31
-44 -81 -123 -112 -176 -31 -52 -64 -101 -72 -108 -33 -27 -58 -83 -67 -148
-6 -44 -22 -92 -44 -135 -47 -90 -46 -131 1 -216 24 -43 48 -112 73 -211 21
-80 49 -168 63 -196 38 -74 75 -200 83 -280 3 -38 15 -105 26 -147 36 -147 50
-280 37 -364 -9 -58 -9 -92 0 -144 12 -68 -1 -184 -38 -335 -5 -22 -10 -59
-10 -83 0 -26 -12 -71 -30 -112 -18 -42 -30 -85 -30 -112 0 -62 -24 -123 -75
-193 -24 -33 -91 -127 -150 -210 -181 -257 -257 -343 -339 -389 -63 -35 -76
-50 -76 -87 0 -25 36 -33 108 -26 126 14 213 58 343 173 34 31 88 68 118 81
37 16 83 51 136 102 44 43 105 96 135 118 74 54 107 93 159 190 28 53 64 101
102 137 79 76 143 203 164 331 8 47 37 106 76 157 41 51 59 99 59 154 0 35 8
62 32 103 27 47 32 65 31 116 -1 33 4 85 12 115 25 104 36 215 33 340 -1 69 1
150 6 180 7 45 4 76 -14 152 -24 107 -24 124 10 308 19 108 21 133 11 186 -15
84 -14 115 8 192 23 80 36 164 53 332 10 105 17 134 41 180 24 43 31 73 37
142 6 83 8 89 51 143 24 31 56 73 72 92 37 49 51 101 43 158 -13 85 -55 101
-166 65z"/>
<path d="M1534 4495 c-21 -31 -12 -71 32 -151 73 -132 117 -351 91 -453 -14
-54 -15 -75 -5 -131 10 -56 9 -80 -5 -146 -15 -71 -15 -85 -2 -139 21 -86 19
-112 -14 -181 -27 -57 -51 -178 -65 -323 -4 -36 -15 -69 -37 -102 -24 -37 -33
-67 -39 -122 -18 -152 -33 -224 -60 -287 -52 -120 -77 -667 -37 -810 10 -36
22 -103 27 -150 13 -124 53 -249 112 -354 29 -50 75 -136 103 -191 95 -189
184 -289 378 -427 186 -132 215 -135 408 -35 189 98 237 127 298 183 31 28 75
61 97 72 113 57 274 294 274 404 0 15 23 72 51 125 47 89 54 112 79 253 16 85
33 175 39 200 21 94 18 315 -6 442 -14 71 -23 155 -23 213 0 81 -5 111 -34
203 -19 59 -44 153 -55 209 -12 61 -38 144 -65 205 -24 57 -50 130 -57 162 -7
33 -27 80 -45 106 -17 25 -48 81 -68 124 -58 126 -166 306 -222 367 -28 32
-68 88 -90 125 -21 37 -57 82 -79 100 -23 18 -63 67 -90 110 -45 69 -60 84
-155 147 -58 38 -133 94 -166 123 -75 65 -96 74 -176 72 -54 -1 -71 3 -118 30
-95 53 -248 69 -276 27z"/>
<path d="M2106 300 c-111 -35 -88 -104 60 -178 146 -73 201 -62 192 37 -11
118 -125 182 -252 141z"/>
</g>
</svg>
